<mxfile host="app.diagrams.net" modified="2023-07-23T09:17:05.221Z" agent="Mozilla/5.0 (Windows NT 10.0; Win64; x64; rv:109.0) Gecko/20100101 Firefox/115.0" etag="efuT1ixf67X9Vfos88p_" version="21.2.9" type="device">
  <diagram name="第 1 页" id="yGoTb6qsbvz1zuX-XJ-E">
    <mxGraphModel dx="3763" dy="1591" grid="1" gridSize="10" guides="1" tooltips="1" connect="1" arrows="1" fold="1" page="0" pageScale="1" pageWidth="827" pageHeight="1169" math="0" shadow="0">
      <root>
        <mxCell id="0" />
        <mxCell id="1" parent="0" />
        <mxCell id="ulPhFCoUVMPPUN6pGgt2-73" value="" style="rounded=0;whiteSpace=wrap;html=1;sketch=1;hachureGap=4;jiggle=2;curveFitting=1;fontFamily=Architects Daughter;fontSource=https%3A%2F%2Ffonts.googleapis.com%2Fcss%3Ffamily%3DArchitects%2BDaughter;fontSize=25;" vertex="1" parent="1">
          <mxGeometry x="-200" y="400" width="1000" height="570" as="geometry" />
        </mxCell>
        <mxCell id="ulPhFCoUVMPPUN6pGgt2-72" value="" style="rounded=0;whiteSpace=wrap;html=1;sketch=1;hachureGap=4;jiggle=2;curveFitting=1;fontFamily=Architects Daughter;fontSource=https%3A%2F%2Ffonts.googleapis.com%2Fcss%3Ffamily%3DArchitects%2BDaughter;fontSize=25;" vertex="1" parent="1">
          <mxGeometry x="-200" y="200" width="1000" height="170" as="geometry" />
        </mxCell>
        <mxCell id="ulPhFCoUVMPPUN6pGgt2-70" value="" style="rounded=0;whiteSpace=wrap;html=1;sketch=1;hachureGap=4;jiggle=2;curveFitting=1;fontFamily=Architects Daughter;fontSource=https%3A%2F%2Ffonts.googleapis.com%2Fcss%3Ffamily%3DArchitects%2BDaughter;fontSize=25;" vertex="1" parent="1">
          <mxGeometry x="-200" y="40" width="1000" height="140" as="geometry" />
        </mxCell>
        <mxCell id="ulPhFCoUVMPPUN6pGgt2-1" value="&lt;div style=&quot;font-size: 25px;&quot;&gt;Cloud Service Platform System&lt;/div&gt;&lt;div style=&quot;font-size: 25px;&quot;&gt;前台系统&lt;br style=&quot;font-size: 25px;&quot;&gt;&lt;/div&gt;" style="rounded=0;whiteSpace=wrap;html=1;sketch=1;hachureGap=4;jiggle=2;curveFitting=1;fontFamily=Architects Daughter;fontSource=https%3A%2F%2Ffonts.googleapis.com%2Fcss%3Ffamily%3DArchitects%2BDaughter;fontSize=25;fillColor=#d5e8d4;strokeColor=#82b366;" vertex="1" parent="1">
          <mxGeometry x="-130" y="70" width="400" height="90" as="geometry" />
        </mxCell>
        <mxCell id="ulPhFCoUVMPPUN6pGgt2-23" value="" style="rounded=0;whiteSpace=wrap;html=1;sketch=1;hachureGap=4;jiggle=2;curveFitting=1;fontFamily=Architects Daughter;fontSource=https%3A%2F%2Ffonts.googleapis.com%2Fcss%3Ffamily%3DArchitects%2BDaughter;fontSize=25;fillColor=#fff2cc;strokeColor=#d6b656;" vertex="1" parent="1">
          <mxGeometry x="-160" y="430" width="200" height="250" as="geometry" />
        </mxCell>
        <mxCell id="ulPhFCoUVMPPUN6pGgt2-39" value="&lt;div style=&quot;font-size: 25px;&quot;&gt;Cloud Service Platform System&lt;/div&gt;&lt;div style=&quot;font-size: 25px;&quot;&gt;后台系统&lt;/div&gt;" style="rounded=0;whiteSpace=wrap;html=1;sketch=1;hachureGap=4;jiggle=2;curveFitting=1;fontFamily=Architects Daughter;fontSource=https%3A%2F%2Ffonts.googleapis.com%2Fcss%3Ffamily%3DArchitects%2BDaughter;fontSize=25;fillColor=#d5e8d4;strokeColor=#82b366;" vertex="1" parent="1">
          <mxGeometry x="310" y="70" width="440" height="90" as="geometry" />
        </mxCell>
        <mxCell id="ulPhFCoUVMPPUN6pGgt2-40" value="Nginx" style="rounded=0;whiteSpace=wrap;html=1;sketch=1;hachureGap=4;jiggle=2;curveFitting=1;fontFamily=Architects Daughter;fontSource=https%3A%2F%2Ffonts.googleapis.com%2Fcss%3Ffamily%3DArchitects%2BDaughter;fontSize=25;fillColor=#f8cecc;strokeColor=#b85450;" vertex="1" parent="1">
          <mxGeometry x="-130" y="220" width="860" height="50" as="geometry" />
        </mxCell>
        <mxCell id="ulPhFCoUVMPPUN6pGgt2-41" value="RPC/http/https" style="rounded=0;whiteSpace=wrap;html=1;sketch=1;hachureGap=4;jiggle=2;curveFitting=1;fontFamily=Architects Daughter;fontSource=https%3A%2F%2Ffonts.googleapis.com%2Fcss%3Ffamily%3DArchitects%2BDaughter;fontSize=25;fillColor=#e51400;fontColor=#000000;strokeColor=#B20000;" vertex="1" parent="1">
          <mxGeometry x="-30" y="290" width="200" height="50" as="geometry" />
        </mxCell>
        <mxCell id="ulPhFCoUVMPPUN6pGgt2-42" value="ResTful API" style="rounded=0;whiteSpace=wrap;html=1;sketch=1;hachureGap=4;jiggle=2;curveFitting=1;fontFamily=Architects Daughter;fontSource=https%3A%2F%2Ffonts.googleapis.com%2Fcss%3Ffamily%3DArchitects%2BDaughter;fontSize=25;fillColor=#d80073;fontColor=#000000;strokeColor=#A50040;" vertex="1" parent="1">
          <mxGeometry x="430" y="290" width="200" height="50" as="geometry" />
        </mxCell>
        <mxCell id="ulPhFCoUVMPPUN6pGgt2-43" value="计算服务" style="text;html=1;align=center;verticalAlign=middle;resizable=0;points=[];autosize=1;fontSize=25;fontFamily=Architects Daughter;" vertex="1" parent="1">
          <mxGeometry x="-120" y="440" width="120" height="40" as="geometry" />
        </mxCell>
        <mxCell id="ulPhFCoUVMPPUN6pGgt2-44" value="" style="rounded=0;whiteSpace=wrap;html=1;sketch=1;hachureGap=4;jiggle=2;curveFitting=1;fontFamily=Architects Daughter;fontSource=https%3A%2F%2Ffonts.googleapis.com%2Fcss%3Ffamily%3DArchitects%2BDaughter;fontSize=25;fillColor=#fff2cc;strokeColor=#d6b656;" vertex="1" parent="1">
          <mxGeometry x="80" y="430" width="200" height="250" as="geometry" />
        </mxCell>
        <mxCell id="ulPhFCoUVMPPUN6pGgt2-45" value="容器服务" style="text;html=1;align=center;verticalAlign=middle;resizable=0;points=[];autosize=1;fontSize=25;fontFamily=Architects Daughter;" vertex="1" parent="1">
          <mxGeometry x="120" y="440" width="120" height="40" as="geometry" />
        </mxCell>
        <mxCell id="ulPhFCoUVMPPUN6pGgt2-50" value="" style="rounded=0;whiteSpace=wrap;html=1;sketch=1;hachureGap=4;jiggle=2;curveFitting=1;fontFamily=Architects Daughter;fontSource=https%3A%2F%2Ffonts.googleapis.com%2Fcss%3Ffamily%3DArchitects%2BDaughter;fontSize=25;fillColor=#fff2cc;strokeColor=#d6b656;" vertex="1" parent="1">
          <mxGeometry x="320" y="430" width="200" height="250" as="geometry" />
        </mxCell>
        <mxCell id="ulPhFCoUVMPPUN6pGgt2-51" value="存储服务" style="text;html=1;align=center;verticalAlign=middle;resizable=0;points=[];autosize=1;fontSize=25;fontFamily=Architects Daughter;" vertex="1" parent="1">
          <mxGeometry x="360" y="440" width="120" height="40" as="geometry" />
        </mxCell>
        <mxCell id="ulPhFCoUVMPPUN6pGgt2-52" value="" style="rounded=0;whiteSpace=wrap;html=1;sketch=1;hachureGap=4;jiggle=2;curveFitting=1;fontFamily=Architects Daughter;fontSource=https%3A%2F%2Ffonts.googleapis.com%2Fcss%3Ffamily%3DArchitects%2BDaughter;fontSize=25;fillColor=#fff2cc;strokeColor=#d6b656;" vertex="1" parent="1">
          <mxGeometry x="560" y="430" width="200" height="250" as="geometry" />
        </mxCell>
        <mxCell id="ulPhFCoUVMPPUN6pGgt2-53" value="网络服务" style="text;html=1;align=center;verticalAlign=middle;resizable=0;points=[];autosize=1;fontSize=25;fontFamily=Architects Daughter;" vertex="1" parent="1">
          <mxGeometry x="600" y="440" width="120" height="40" as="geometry" />
        </mxCell>
        <mxCell id="ulPhFCoUVMPPUN6pGgt2-62" value="" style="rounded=0;whiteSpace=wrap;html=1;sketch=1;hachureGap=4;jiggle=2;curveFitting=1;fontFamily=Architects Daughter;fontSource=https%3A%2F%2Ffonts.googleapis.com%2Fcss%3Ffamily%3DArchitects%2BDaughter;fontSize=25;fillColor=#dae8fc;strokeColor=#6c8ebf;" vertex="1" parent="1">
          <mxGeometry x="-160" y="710" width="200" height="240" as="geometry" />
        </mxCell>
        <mxCell id="ulPhFCoUVMPPUN6pGgt2-63" value="页面服务" style="text;html=1;align=center;verticalAlign=middle;resizable=0;points=[];autosize=1;strokeColor=none;fillColor=none;fontSize=25;fontFamily=Architects Daughter;" vertex="1" parent="1">
          <mxGeometry x="-120" y="720" width="120" height="40" as="geometry" />
        </mxCell>
        <mxCell id="ulPhFCoUVMPPUN6pGgt2-64" value="" style="rounded=0;whiteSpace=wrap;html=1;sketch=1;hachureGap=4;jiggle=2;curveFitting=1;fontFamily=Architects Daughter;fontSource=https%3A%2F%2Ffonts.googleapis.com%2Fcss%3Ffamily%3DArchitects%2BDaughter;fontSize=25;fillColor=#dae8fc;strokeColor=#6c8ebf;" vertex="1" parent="1">
          <mxGeometry x="80" y="710" width="200" height="240" as="geometry" />
        </mxCell>
        <mxCell id="ulPhFCoUVMPPUN6pGgt2-65" value="用户服务" style="text;html=1;align=center;verticalAlign=middle;resizable=0;points=[];autosize=1;strokeColor=none;fillColor=none;fontSize=25;fontFamily=Architects Daughter;" vertex="1" parent="1">
          <mxGeometry x="120" y="720" width="120" height="40" as="geometry" />
        </mxCell>
        <mxCell id="ulPhFCoUVMPPUN6pGgt2-66" value="" style="rounded=0;whiteSpace=wrap;html=1;sketch=1;hachureGap=4;jiggle=2;curveFitting=1;fontFamily=Architects Daughter;fontSource=https%3A%2F%2Ffonts.googleapis.com%2Fcss%3Ffamily%3DArchitects%2BDaughter;fontSize=25;fillColor=#dae8fc;strokeColor=#6c8ebf;" vertex="1" parent="1">
          <mxGeometry x="320" y="710" width="200" height="240" as="geometry" />
        </mxCell>
        <mxCell id="ulPhFCoUVMPPUN6pGgt2-67" value="监控服务" style="text;html=1;align=center;verticalAlign=middle;resizable=0;points=[];autosize=1;strokeColor=none;fillColor=none;fontSize=25;fontFamily=Architects Daughter;" vertex="1" parent="1">
          <mxGeometry x="360" y="720" width="120" height="40" as="geometry" />
        </mxCell>
        <mxCell id="ulPhFCoUVMPPUN6pGgt2-68" value="" style="rounded=0;whiteSpace=wrap;html=1;sketch=1;hachureGap=4;jiggle=2;curveFitting=1;fontFamily=Architects Daughter;fontSource=https%3A%2F%2Ffonts.googleapis.com%2Fcss%3Ffamily%3DArchitects%2BDaughter;fontSize=25;fillColor=#dae8fc;strokeColor=#6c8ebf;" vertex="1" parent="1">
          <mxGeometry x="560" y="710" width="200" height="240" as="geometry" />
        </mxCell>
        <mxCell id="ulPhFCoUVMPPUN6pGgt2-69" value="资源管理服务" style="text;html=1;align=center;verticalAlign=middle;resizable=0;points=[];autosize=1;strokeColor=none;fillColor=none;fontSize=25;fontFamily=Architects Daughter;" vertex="1" parent="1">
          <mxGeometry x="575" y="720" width="170" height="40" as="geometry" />
        </mxCell>
        <mxCell id="ulPhFCoUVMPPUN6pGgt2-74" value="访问层" style="rounded=0;whiteSpace=wrap;html=1;sketch=1;hachureGap=4;jiggle=2;curveFitting=1;fontFamily=Architects Daughter;fontSource=https%3A%2F%2Ffonts.googleapis.com%2Fcss%3Ffamily%3DArchitects%2BDaughter;fontSize=25;fillColor=#dae8fc;strokeColor=#6c8ebf;gradientColor=#7ea6e0;" vertex="1" parent="1">
          <mxGeometry x="-400" y="40" width="160" height="140" as="geometry" />
        </mxCell>
        <mxCell id="ulPhFCoUVMPPUN6pGgt2-75" value="网关层" style="rounded=0;whiteSpace=wrap;html=1;sketch=1;hachureGap=4;jiggle=2;curveFitting=1;fontFamily=Architects Daughter;fontSource=https%3A%2F%2Ffonts.googleapis.com%2Fcss%3Ffamily%3DArchitects%2BDaughter;fontSize=25;fillColor=#dae8fc;strokeColor=#6c8ebf;gradientColor=#7ea6e0;" vertex="1" parent="1">
          <mxGeometry x="-400" y="200" width="160" height="170" as="geometry" />
        </mxCell>
        <mxCell id="ulPhFCoUVMPPUN6pGgt2-76" value="后台系统" style="rounded=0;whiteSpace=wrap;html=1;sketch=1;hachureGap=4;jiggle=2;curveFitting=1;fontFamily=Architects Daughter;fontSource=https%3A%2F%2Ffonts.googleapis.com%2Fcss%3Ffamily%3DArchitects%2BDaughter;fontSize=25;fillColor=#dae8fc;strokeColor=#6c8ebf;gradientColor=#7ea6e0;" vertex="1" parent="1">
          <mxGeometry x="-400" y="400" width="160" height="580" as="geometry" />
        </mxCell>
        <mxCell id="ulPhFCoUVMPPUN6pGgt2-77" value="" style="rounded=0;whiteSpace=wrap;html=1;sketch=1;hachureGap=4;jiggle=2;curveFitting=1;fontFamily=Architects Daughter;fontSource=https%3A%2F%2Ffonts.googleapis.com%2Fcss%3Ffamily%3DArchitects%2BDaughter;fontSize=25;" vertex="1" parent="1">
          <mxGeometry x="-200" y="1000" width="1000" height="280" as="geometry" />
        </mxCell>
        <mxCell id="ulPhFCoUVMPPUN6pGgt2-78" value="数据存储" style="rounded=0;whiteSpace=wrap;html=1;sketch=1;hachureGap=4;jiggle=2;curveFitting=1;fontFamily=Architects Daughter;fontSource=https%3A%2F%2Ffonts.googleapis.com%2Fcss%3Ffamily%3DArchitects%2BDaughter;fontSize=25;fillColor=#dae8fc;strokeColor=#6c8ebf;gradientColor=#7ea6e0;" vertex="1" parent="1">
          <mxGeometry x="-400" y="1010" width="160" height="270" as="geometry" />
        </mxCell>
        <mxCell id="ulPhFCoUVMPPUN6pGgt2-80" value="业务数据库Mysql集群" style="rounded=0;whiteSpace=wrap;html=1;sketch=1;hachureGap=4;jiggle=2;curveFitting=1;fontFamily=Architects Daughter;fontSource=https%3A%2F%2Ffonts.googleapis.com%2Fcss%3Ffamily%3DArchitects%2BDaughter;fontSize=25;fillColor=#ffcd28;gradientColor=#ffa500;strokeColor=#d79b00;" vertex="1" parent="1">
          <mxGeometry x="-165" y="1050" width="280" height="90" as="geometry" />
        </mxCell>
        <mxCell id="ulPhFCoUVMPPUN6pGgt2-81" value="缓存数据库redis集群" style="rounded=0;whiteSpace=wrap;html=1;sketch=1;hachureGap=4;jiggle=2;curveFitting=1;fontFamily=Architects Daughter;fontSource=https%3A%2F%2Ffonts.googleapis.com%2Fcss%3Ffamily%3DArchitects%2BDaughter;fontSize=25;fillColor=#dae8fc;gradientColor=#7ea6e0;strokeColor=#6c8ebf;" vertex="1" parent="1">
          <mxGeometry x="155" y="1050" width="280" height="90" as="geometry" />
        </mxCell>
        <mxCell id="ulPhFCoUVMPPUN6pGgt2-82" value="缓存数据库MongoBD集群" style="rounded=0;whiteSpace=wrap;html=1;sketch=1;hachureGap=4;jiggle=2;curveFitting=1;fontFamily=Architects Daughter;fontSource=https%3A%2F%2Ffonts.googleapis.com%2Fcss%3Ffamily%3DArchitects%2BDaughter;fontSize=25;fillColor=#d5e8d4;gradientColor=#97d077;strokeColor=#82b366;" vertex="1" parent="1">
          <mxGeometry x="470" y="1050" width="295" height="90" as="geometry" />
        </mxCell>
        <mxCell id="ulPhFCoUVMPPUN6pGgt2-83" value="对象存储Minio存储" style="rounded=0;whiteSpace=wrap;html=1;sketch=1;hachureGap=4;jiggle=2;curveFitting=1;fontFamily=Architects Daughter;fontSource=https%3A%2F%2Ffonts.googleapis.com%2Fcss%3Ffamily%3DArchitects%2BDaughter;fontSize=25;fillColor=#f8cecc;gradientColor=#ea6b66;strokeColor=#b85450;" vertex="1" parent="1">
          <mxGeometry x="-165" y="1170" width="280" height="90" as="geometry" />
        </mxCell>
        <mxCell id="ulPhFCoUVMPPUN6pGgt2-84" value="搜索数据存储Elasticseach" style="rounded=0;whiteSpace=wrap;html=1;sketch=1;hachureGap=4;jiggle=2;curveFitting=1;fontFamily=Architects Daughter;fontSource=https%3A%2F%2Ffonts.googleapis.com%2Fcss%3Ffamily%3DArchitects%2BDaughter;fontSize=25;fillColor=#fff2cc;gradientColor=#ffd966;strokeColor=#d6b656;" vertex="1" parent="1">
          <mxGeometry x="160" y="1170" width="280" height="90" as="geometry" />
        </mxCell>
        <mxCell id="ulPhFCoUVMPPUN6pGgt2-85" value="其他服务" style="rounded=0;whiteSpace=wrap;html=1;sketch=1;hachureGap=4;jiggle=2;curveFitting=1;fontFamily=Architects Daughter;fontSource=https%3A%2F%2Ffonts.googleapis.com%2Fcss%3Ffamily%3DArchitects%2BDaughter;fontSize=25;fillColor=#e6d0de;gradientColor=#d5739d;strokeColor=#996185;" vertex="1" parent="1">
          <mxGeometry x="477.5" y="1170" width="280" height="90" as="geometry" />
        </mxCell>
        <mxCell id="ulPhFCoUVMPPUN6pGgt2-86" value="生产部署" style="rounded=0;whiteSpace=wrap;html=1;sketch=1;hachureGap=4;jiggle=2;curveFitting=1;fontFamily=Architects Daughter;fontSource=https%3A%2F%2Ffonts.googleapis.com%2Fcss%3Ffamily%3DArchitects%2BDaughter;fontSize=25;fillColor=#dae8fc;strokeColor=#6c8ebf;gradientColor=#7ea6e0;" vertex="1" parent="1">
          <mxGeometry x="-400" y="1310" width="160" height="170" as="geometry" />
        </mxCell>
        <mxCell id="ulPhFCoUVMPPUN6pGgt2-87" value="" style="rounded=0;whiteSpace=wrap;html=1;sketch=1;hachureGap=4;jiggle=2;curveFitting=1;fontFamily=Architects Daughter;fontSource=https%3A%2F%2Ffonts.googleapis.com%2Fcss%3Ffamily%3DArchitects%2BDaughter;fontSize=25;" vertex="1" parent="1">
          <mxGeometry x="-200" y="1320" width="1000" height="160" as="geometry" />
        </mxCell>
        <mxCell id="ulPhFCoUVMPPUN6pGgt2-88" value="容器化kubesphere" style="rounded=0;whiteSpace=wrap;html=1;sketch=1;hachureGap=4;jiggle=2;curveFitting=1;fontFamily=Architects Daughter;fontSource=https%3A%2F%2Ffonts.googleapis.com%2Fcss%3Ffamily%3DArchitects%2BDaughter;fontSize=25;fillColor=#cdeb8b;strokeColor=#36393d;" vertex="1" parent="1">
          <mxGeometry x="-165" y="1360" width="280" height="90" as="geometry" />
        </mxCell>
        <mxCell id="ulPhFCoUVMPPUN6pGgt2-89" value="&lt;div&gt;持续集成&lt;/div&gt;&lt;div&gt;jenkins&lt;br&gt;&lt;/div&gt;" style="rounded=0;whiteSpace=wrap;html=1;sketch=1;hachureGap=4;jiggle=2;curveFitting=1;fontFamily=Architects Daughter;fontSource=https%3A%2F%2Ffonts.googleapis.com%2Fcss%3Ffamily%3DArchitects%2BDaughter;fontSize=25;fillColor=#ffcccc;strokeColor=#36393d;" vertex="1" parent="1">
          <mxGeometry x="160" y="1360" width="280" height="90" as="geometry" />
        </mxCell>
        <mxCell id="ulPhFCoUVMPPUN6pGgt2-90" value="&lt;div&gt;监控系统&lt;/div&gt;&lt;div&gt;Prometheus/grafana&lt;/div&gt;" style="rounded=0;whiteSpace=wrap;html=1;sketch=1;hachureGap=4;jiggle=2;curveFitting=1;fontFamily=Architects Daughter;fontSource=https%3A%2F%2Ffonts.googleapis.com%2Fcss%3Ffamily%3DArchitects%2BDaughter;fontSize=25;fillColor=#ffff88;strokeColor=#36393d;" vertex="1" parent="1">
          <mxGeometry x="485" y="1360" width="280" height="90" as="geometry" />
        </mxCell>
        <mxCell id="ulPhFCoUVMPPUN6pGgt2-92" value="" style="rounded=0;whiteSpace=wrap;html=1;sketch=1;hachureGap=4;jiggle=2;curveFitting=1;fontFamily=Architects Daughter;fontSource=https%3A%2F%2Ffonts.googleapis.com%2Fcss%3Ffamily%3DArchitects%2BDaughter;fontSize=25;fillColor=#f0a30a;fontColor=#000000;strokeColor=#BD7000;" vertex="1" parent="1">
          <mxGeometry x="840" y="400" width="200" height="1080" as="geometry" />
        </mxCell>
        <mxCell id="ulPhFCoUVMPPUN6pGgt2-93" value="" style="rounded=0;whiteSpace=wrap;html=1;sketch=1;hachureGap=4;jiggle=2;curveFitting=1;fontFamily=Architects Daughter;fontSource=https%3A%2F%2Ffonts.googleapis.com%2Fcss%3Ffamily%3DArchitects%2BDaughter;fontSize=25;fillColor=#f8cecc;gradientColor=#ea6b66;strokeColor=#b85450;" vertex="1" parent="1">
          <mxGeometry x="-640" y="40" width="200" height="1440" as="geometry" />
        </mxCell>
        <mxCell id="ulPhFCoUVMPPUN6pGgt2-94" value="后端技术栈" style="text;html=1;align=center;verticalAlign=middle;resizable=0;points=[];autosize=1;strokeColor=none;fillColor=none;fontSize=25;fontFamily=Architects Daughter;" vertex="1" parent="1">
          <mxGeometry x="-615" y="60" width="150" height="40" as="geometry" />
        </mxCell>
        <mxCell id="ulPhFCoUVMPPUN6pGgt2-96" value="SSM框架" style="rounded=0;whiteSpace=wrap;html=1;sketch=1;hachureGap=4;jiggle=2;curveFitting=1;fontFamily=Architects Daughter;fontSource=https%3A%2F%2Ffonts.googleapis.com%2Fcss%3Ffamily%3DArchitects%2BDaughter;fontSize=20;" vertex="1" parent="1">
          <mxGeometry x="-610" y="230" width="145" height="60" as="geometry" />
        </mxCell>
        <mxCell id="ulPhFCoUVMPPUN6pGgt2-97" value="MQ" style="rounded=0;whiteSpace=wrap;html=1;sketch=1;hachureGap=4;jiggle=2;curveFitting=1;fontFamily=Architects Daughter;fontSource=https%3A%2F%2Ffonts.googleapis.com%2Fcss%3Ffamily%3DArchitects%2BDaughter;fontSize=20;" vertex="1" parent="1">
          <mxGeometry x="-610" y="340" width="145" height="60" as="geometry" />
        </mxCell>
        <mxCell id="ulPhFCoUVMPPUN6pGgt2-98" value="服务追踪技术" style="rounded=0;whiteSpace=wrap;html=1;sketch=1;hachureGap=4;jiggle=2;curveFitting=1;fontFamily=Architects Daughter;fontSource=https%3A%2F%2Ffonts.googleapis.com%2Fcss%3Ffamily%3DArchitects%2BDaughter;fontSize=20;" vertex="1" parent="1">
          <mxGeometry x="-610" y="450" width="145" height="60" as="geometry" />
        </mxCell>
        <mxCell id="ulPhFCoUVMPPUN6pGgt2-99" value="文档生产工具" style="rounded=0;whiteSpace=wrap;html=1;sketch=1;hachureGap=4;jiggle=2;curveFitting=1;fontFamily=Architects Daughter;fontSource=https%3A%2F%2Ffonts.googleapis.com%2Fcss%3Ffamily%3DArchitects%2BDaughter;fontSize=20;" vertex="1" parent="1">
          <mxGeometry x="-610" y="570" width="145" height="60" as="geometry" />
        </mxCell>
        <mxCell id="ulPhFCoUVMPPUN6pGgt2-100" value="其他技术" style="rounded=0;whiteSpace=wrap;html=1;sketch=1;hachureGap=4;jiggle=2;curveFitting=1;fontFamily=Architects Daughter;fontSource=https%3A%2F%2Ffonts.googleapis.com%2Fcss%3Ffamily%3DArchitects%2BDaughter;fontSize=20;" vertex="1" parent="1">
          <mxGeometry x="-610" y="690" width="145" height="60" as="geometry" />
        </mxCell>
        <mxCell id="ulPhFCoUVMPPUN6pGgt2-101" value="" style="rounded=0;whiteSpace=wrap;html=1;sketch=1;hachureGap=4;jiggle=2;curveFitting=1;fontFamily=Architects Daughter;fontSource=https%3A%2F%2Ffonts.googleapis.com%2Fcss%3Ffamily%3DArchitects%2BDaughter;fontSize=25;fillColor=#60a917;fontColor=#ffffff;strokeColor=#2D7600;" vertex="1" parent="1">
          <mxGeometry x="840" y="40" width="200" height="330" as="geometry" />
        </mxCell>
        <mxCell id="ulPhFCoUVMPPUN6pGgt2-102" value="前端技术" style="text;html=1;align=center;verticalAlign=middle;resizable=0;points=[];autosize=1;strokeColor=none;fillColor=none;fontSize=20;fontFamily=Architects Daughter;" vertex="1" parent="1">
          <mxGeometry x="890" y="40" width="100" height="40" as="geometry" />
        </mxCell>
        <mxCell id="ulPhFCoUVMPPUN6pGgt2-103" value="Vue" style="rounded=0;whiteSpace=wrap;html=1;sketch=1;hachureGap=4;jiggle=2;curveFitting=1;fontFamily=Architects Daughter;fontSource=https%3A%2F%2Ffonts.googleapis.com%2Fcss%3Ffamily%3DArchitects%2BDaughter;fontSize=25;" vertex="1" parent="1">
          <mxGeometry x="860" y="80" width="170" height="40" as="geometry" />
        </mxCell>
        <mxCell id="ulPhFCoUVMPPUN6pGgt2-105" value="Element ui " style="rounded=0;whiteSpace=wrap;html=1;sketch=1;hachureGap=4;jiggle=2;curveFitting=1;fontFamily=Architects Daughter;fontSource=https%3A%2F%2Ffonts.googleapis.com%2Fcss%3Ffamily%3DArchitects%2BDaughter;fontSize=25;" vertex="1" parent="1">
          <mxGeometry x="860" y="130" width="170" height="40" as="geometry" />
        </mxCell>
        <mxCell id="ulPhFCoUVMPPUN6pGgt2-106" value="Axios技术" style="rounded=0;whiteSpace=wrap;html=1;sketch=1;hachureGap=4;jiggle=2;curveFitting=1;fontFamily=Architects Daughter;fontSource=https%3A%2F%2Ffonts.googleapis.com%2Fcss%3Ffamily%3DArchitects%2BDaughter;fontSize=25;" vertex="1" parent="1">
          <mxGeometry x="860" y="180" width="170" height="40" as="geometry" />
        </mxCell>
        <mxCell id="ulPhFCoUVMPPUN6pGgt2-107" value="Echarts" style="rounded=0;whiteSpace=wrap;html=1;sketch=1;hachureGap=4;jiggle=2;curveFitting=1;fontFamily=Architects Daughter;fontSource=https%3A%2F%2Ffonts.googleapis.com%2Fcss%3Ffamily%3DArchitects%2BDaughter;fontSize=25;" vertex="1" parent="1">
          <mxGeometry x="860" y="230" width="170" height="40" as="geometry" />
        </mxCell>
        <mxCell id="ulPhFCoUVMPPUN6pGgt2-108" value="&lt;font style=&quot;font-size: 25px;&quot;&gt;Vue-template&lt;/font&gt;" style="rounded=0;whiteSpace=wrap;html=1;sketch=1;hachureGap=4;jiggle=2;curveFitting=1;fontFamily=Architects Daughter;fontSource=https%3A%2F%2Ffonts.googleapis.com%2Fcss%3Ffamily%3DArchitects%2BDaughter;fontSize=25;" vertex="1" parent="1">
          <mxGeometry x="860" y="284" width="170" height="30" as="geometry" />
        </mxCell>
        <mxCell id="ulPhFCoUVMPPUN6pGgt2-110" value="&lt;font style=&quot;font-size: 20px;&quot;&gt;其他技术&lt;/font&gt;" style="rounded=0;whiteSpace=wrap;html=1;sketch=1;hachureGap=4;jiggle=2;curveFitting=1;fontFamily=Architects Daughter;fontSource=https%3A%2F%2Ffonts.googleapis.com%2Fcss%3Ffamily%3DArchitects%2BDaughter;fontSize=20;" vertex="1" parent="1">
          <mxGeometry x="860" y="330" width="170" height="30" as="geometry" />
        </mxCell>
        <mxCell id="ulPhFCoUVMPPUN6pGgt2-111" value="Vmware exsi" style="rounded=0;whiteSpace=wrap;html=1;sketch=1;hachureGap=4;jiggle=2;curveFitting=1;fontFamily=Architects Daughter;fontSource=https%3A%2F%2Ffonts.googleapis.com%2Fcss%3Ffamily%3DArchitects%2BDaughter;fontSize=25;" vertex="1" parent="1">
          <mxGeometry x="850" y="483" width="175" height="60" as="geometry" />
        </mxCell>
        <mxCell id="ulPhFCoUVMPPUN6pGgt2-112" value="&amp;nbsp;Microsoft oS" style="rounded=0;whiteSpace=wrap;html=1;sketch=1;hachureGap=4;jiggle=2;curveFitting=1;fontFamily=Architects Daughter;fontSource=https%3A%2F%2Ffonts.googleapis.com%2Fcss%3Ffamily%3DArchitects%2BDaughter;fontSize=25;" vertex="1" parent="1">
          <mxGeometry x="850" y="603" width="175" height="60" as="geometry" />
        </mxCell>
        <mxCell id="ulPhFCoUVMPPUN6pGgt2-113" value="&amp;nbsp;ReadHat os" style="rounded=0;whiteSpace=wrap;html=1;sketch=1;hachureGap=4;jiggle=2;curveFitting=1;fontFamily=Architects Daughter;fontSource=https%3A%2F%2Ffonts.googleapis.com%2Fcss%3Ffamily%3DArchitects%2BDaughter;fontSize=25;" vertex="1" parent="1">
          <mxGeometry x="855" y="723" width="170" height="60" as="geometry" />
        </mxCell>
        <mxCell id="ulPhFCoUVMPPUN6pGgt2-114" value="Linux os" style="rounded=0;whiteSpace=wrap;html=1;sketch=1;hachureGap=4;jiggle=2;curveFitting=1;fontFamily=Architects Daughter;fontSource=https%3A%2F%2Ffonts.googleapis.com%2Fcss%3Ffamily%3DArchitects%2BDaughter;fontSize=25;" vertex="1" parent="1">
          <mxGeometry x="855" y="833" width="170" height="60" as="geometry" />
        </mxCell>
        <mxCell id="ulPhFCoUVMPPUN6pGgt2-115" value="Rke2" style="rounded=0;whiteSpace=wrap;html=1;sketch=1;hachureGap=4;jiggle=2;curveFitting=1;fontFamily=Architects Daughter;fontSource=https%3A%2F%2Ffonts.googleapis.com%2Fcss%3Ffamily%3DArchitects%2BDaughter;fontSize=25;" vertex="1" parent="1">
          <mxGeometry x="855" y="943" width="170" height="60" as="geometry" />
        </mxCell>
        <mxCell id="ulPhFCoUVMPPUN6pGgt2-116" value="网络隔离技术" style="rounded=0;whiteSpace=wrap;html=1;sketch=1;hachureGap=4;jiggle=2;curveFitting=1;fontFamily=Architects Daughter;fontSource=https%3A%2F%2Ffonts.googleapis.com%2Fcss%3Ffamily%3DArchitects%2BDaughter;fontSize=20;" vertex="1" parent="1">
          <mxGeometry x="855" y="1060" width="170" height="60" as="geometry" />
        </mxCell>
        <mxCell id="ulPhFCoUVMPPUN6pGgt2-117" value="虚拟化技术" style="rounded=0;whiteSpace=wrap;html=1;sketch=1;hachureGap=4;jiggle=2;curveFitting=1;fontFamily=Architects Daughter;fontSource=https%3A%2F%2Ffonts.googleapis.com%2Fcss%3Ffamily%3DArchitects%2BDaughter;fontSize=20;" vertex="1" parent="1">
          <mxGeometry x="855" y="1185" width="170" height="60" as="geometry" />
        </mxCell>
        <mxCell id="ulPhFCoUVMPPUN6pGgt2-118" value="java tool" style="rounded=0;whiteSpace=wrap;html=1;sketch=1;hachureGap=4;jiggle=2;curveFitting=1;fontFamily=Architects Daughter;fontSource=https%3A%2F%2Ffonts.googleapis.com%2Fcss%3Ffamily%3DArchitects%2BDaughter;fontSize=20;" vertex="1" parent="1">
          <mxGeometry x="-612.5" y="120" width="145" height="60" as="geometry" />
        </mxCell>
        <mxCell id="ulPhFCoUVMPPUN6pGgt2-119" value="cluters 1" style="rounded=0;whiteSpace=wrap;html=1;sketch=1;hachureGap=4;jiggle=2;curveFitting=1;fontFamily=Architects Daughter;fontSource=https%3A%2F%2Ffonts.googleapis.com%2Fcss%3Ffamily%3DArchitects%2BDaughter;fontSize=25;" vertex="1" parent="1">
          <mxGeometry x="-140" y="483" width="160" height="50" as="geometry" />
        </mxCell>
        <mxCell id="ulPhFCoUVMPPUN6pGgt2-120" value="cluters 2" style="rounded=0;whiteSpace=wrap;html=1;sketch=1;hachureGap=4;jiggle=2;curveFitting=1;fontFamily=Architects Daughter;fontSource=https%3A%2F%2Ffonts.googleapis.com%2Fcss%3Ffamily%3DArchitects%2BDaughter;fontSize=25;" vertex="1" parent="1">
          <mxGeometry x="-140" y="550" width="160" height="50" as="geometry" />
        </mxCell>
        <mxCell id="ulPhFCoUVMPPUN6pGgt2-121" value="cluters 3" style="rounded=0;whiteSpace=wrap;html=1;sketch=1;hachureGap=4;jiggle=2;curveFitting=1;fontFamily=Architects Daughter;fontSource=https%3A%2F%2Ffonts.googleapis.com%2Fcss%3Ffamily%3DArchitects%2BDaughter;fontSize=25;" vertex="1" parent="1">
          <mxGeometry x="-140" y="613" width="160" height="50" as="geometry" />
        </mxCell>
        <mxCell id="ulPhFCoUVMPPUN6pGgt2-123" value="test images" style="rounded=0;whiteSpace=wrap;html=1;sketch=1;hachureGap=4;jiggle=2;curveFitting=1;fontFamily=Architects Daughter;fontSource=https%3A%2F%2Ffonts.googleapis.com%2Fcss%3Ffamily%3DArchitects%2BDaughter;fontSize=25;" vertex="1" parent="1">
          <mxGeometry x="100" y="480" width="160" height="50" as="geometry" />
        </mxCell>
        <mxCell id="ulPhFCoUVMPPUN6pGgt2-124" value="dev images" style="rounded=0;whiteSpace=wrap;html=1;sketch=1;hachureGap=4;jiggle=2;curveFitting=1;fontFamily=Architects Daughter;fontSource=https%3A%2F%2Ffonts.googleapis.com%2Fcss%3Ffamily%3DArchitects%2BDaughter;fontSize=25;" vertex="1" parent="1">
          <mxGeometry x="100" y="543" width="160" height="50" as="geometry" />
        </mxCell>
        <mxCell id="ulPhFCoUVMPPUN6pGgt2-125" value="prod images" style="rounded=0;whiteSpace=wrap;html=1;sketch=1;hachureGap=4;jiggle=2;curveFitting=1;fontFamily=Architects Daughter;fontSource=https%3A%2F%2Ffonts.googleapis.com%2Fcss%3Ffamily%3DArchitects%2BDaughter;fontSize=25;" vertex="1" parent="1">
          <mxGeometry x="100" y="608" width="160" height="50" as="geometry" />
        </mxCell>
        <mxCell id="ulPhFCoUVMPPUN6pGgt2-126" value="powerflex" style="rounded=0;whiteSpace=wrap;html=1;sketch=1;hachureGap=4;jiggle=2;curveFitting=1;fontFamily=Architects Daughter;fontSource=https%3A%2F%2Ffonts.googleapis.com%2Fcss%3Ffamily%3DArchitects%2BDaughter;fontSize=25;" vertex="1" parent="1">
          <mxGeometry x="340" y="480" width="160" height="50" as="geometry" />
        </mxCell>
        <mxCell id="ulPhFCoUVMPPUN6pGgt2-127" value="&lt;div&gt;Unity XT&lt;/div&gt;" style="rounded=0;whiteSpace=wrap;html=1;sketch=1;hachureGap=4;jiggle=2;curveFitting=1;fontFamily=Architects Daughter;fontSource=https%3A%2F%2Ffonts.googleapis.com%2Fcss%3Ffamily%3DArchitects%2BDaughter;fontSize=25;" vertex="1" parent="1">
          <mxGeometry x="340" y="543" width="160" height="50" as="geometry" />
        </mxCell>
        <mxCell id="ulPhFCoUVMPPUN6pGgt2-128" value="PowerStore" style="rounded=0;whiteSpace=wrap;html=1;sketch=1;hachureGap=4;jiggle=2;curveFitting=1;fontFamily=Architects Daughter;fontSource=https%3A%2F%2Ffonts.googleapis.com%2Fcss%3Ffamily%3DArchitects%2BDaughter;fontSize=25;" vertex="1" parent="1">
          <mxGeometry x="340" y="613" width="160" height="50" as="geometry" />
        </mxCell>
        <mxCell id="ulPhFCoUVMPPUN6pGgt2-129" value="user pages" style="rounded=0;whiteSpace=wrap;html=1;sketch=1;hachureGap=4;jiggle=2;curveFitting=1;fontFamily=Architects Daughter;fontSource=https%3A%2F%2Ffonts.googleapis.com%2Fcss%3Ffamily%3DArchitects%2BDaughter;fontSize=25;" vertex="1" parent="1">
          <mxGeometry x="-140" y="780" width="160" height="50" as="geometry" />
        </mxCell>
        <mxCell id="ulPhFCoUVMPPUN6pGgt2-130" value="admin pages" style="rounded=0;whiteSpace=wrap;html=1;sketch=1;hachureGap=4;jiggle=2;curveFitting=1;fontFamily=Architects Daughter;fontSource=https%3A%2F%2Ffonts.googleapis.com%2Fcss%3Ffamily%3DArchitects%2BDaughter;fontSize=25;" vertex="1" parent="1">
          <mxGeometry x="-140" y="860" width="160" height="50" as="geometry" />
        </mxCell>
        <mxCell id="ulPhFCoUVMPPUN6pGgt2-131" value="apple service" style="rounded=0;whiteSpace=wrap;html=1;sketch=1;hachureGap=4;jiggle=2;curveFitting=1;fontFamily=Architects Daughter;fontSource=https%3A%2F%2Ffonts.googleapis.com%2Fcss%3Ffamily%3DArchitects%2BDaughter;fontSize=25;" vertex="1" parent="1">
          <mxGeometry x="100" y="770" width="160" height="50" as="geometry" />
        </mxCell>
        <mxCell id="ulPhFCoUVMPPUN6pGgt2-132" value="cion service" style="rounded=0;whiteSpace=wrap;html=1;sketch=1;hachureGap=4;jiggle=2;curveFitting=1;fontFamily=Architects Daughter;fontSource=https%3A%2F%2Ffonts.googleapis.com%2Fcss%3Ffamily%3DArchitects%2BDaughter;fontSize=25;" vertex="1" parent="1">
          <mxGeometry x="100" y="860" width="160" height="50" as="geometry" />
        </mxCell>
        <mxCell id="ulPhFCoUVMPPUN6pGgt2-133" value="user cluster monitor" style="rounded=0;whiteSpace=wrap;html=1;sketch=1;hachureGap=4;jiggle=2;curveFitting=1;fontFamily=Architects Daughter;fontSource=https%3A%2F%2Ffonts.googleapis.com%2Fcss%3Ffamily%3DArchitects%2BDaughter;fontSize=25;" vertex="1" parent="1">
          <mxGeometry x="340" y="770" width="160" height="60" as="geometry" />
        </mxCell>
        <mxCell id="ulPhFCoUVMPPUN6pGgt2-134" value="cluster manager" style="rounded=0;whiteSpace=wrap;html=1;sketch=1;hachureGap=4;jiggle=2;curveFitting=1;fontFamily=Architects Daughter;fontSource=https%3A%2F%2Ffonts.googleapis.com%2Fcss%3Ffamily%3DArchitects%2BDaughter;fontSize=25;" vertex="1" parent="1">
          <mxGeometry x="580" y="770" width="160" height="60" as="geometry" />
        </mxCell>
        <mxCell id="ulPhFCoUVMPPUN6pGgt2-137" value="network" style="rounded=0;whiteSpace=wrap;html=1;sketch=1;hachureGap=4;jiggle=2;curveFitting=1;fontFamily=Architects Daughter;fontSource=https%3A%2F%2Ffonts.googleapis.com%2Fcss%3Ffamily%3DArchitects%2BDaughter;fontSize=25;" vertex="1" parent="1">
          <mxGeometry x="580" y="488" width="160" height="50" as="geometry" />
        </mxCell>
        <mxCell id="ulPhFCoUVMPPUN6pGgt2-138" value="Virtual network" style="rounded=0;whiteSpace=wrap;html=1;sketch=1;hachureGap=4;jiggle=2;curveFitting=1;fontFamily=Architects Daughter;fontSource=https%3A%2F%2Ffonts.googleapis.com%2Fcss%3Ffamily%3DArchitects%2BDaughter;fontSize=25;" vertex="1" parent="1">
          <mxGeometry x="585" y="580" width="160" height="62" as="geometry" />
        </mxCell>
        <mxCell id="ulPhFCoUVMPPUN6pGgt2-139" value="admin cluster monitor" style="rounded=0;whiteSpace=wrap;html=1;sketch=1;hachureGap=4;jiggle=2;curveFitting=1;fontFamily=Architects Daughter;fontSource=https%3A%2F%2Ffonts.googleapis.com%2Fcss%3Ffamily%3DArchitects%2BDaughter;fontSize=25;" vertex="1" parent="1">
          <mxGeometry x="340" y="860" width="160" height="60" as="geometry" />
        </mxCell>
      </root>
    </mxGraphModel>
  </diagram>
</mxfile>
